<svg width="1600" height="400" viewBox="0 0 1600 400" fill="none" xmlns="http://www.w3.org/2000/svg">
<rect width="1600" height="400" fill="white"/>
<path d="M128.947 298.975C108.225 298.975 88.2423 295.683 69 289.099V252.557H108.965V255.026C108.965 262.927 113.981 266.878 124.013 266.878C132.894 266.878 137.335 263.833 137.335 257.742C137.335 254.45 136.019 251.981 133.388 250.335C130.921 248.689 126.48 247.29 120.066 246.138L107.731 243.916C81.9105 239.307 69 224.657 69 199.967C69 185.646 74.4273 174.535 85.282 166.634C96.1366 158.733 110.774 154.783 129.194 154.783C149.752 154.783 167.103 158.24 181.247 165.153V199.473H143.749V197.004C143.749 193.712 142.598 191.243 140.295 189.597C138.157 187.786 134.95 186.881 130.674 186.881C122.451 186.881 118.339 189.514 118.339 194.782C118.339 197.58 119.491 199.72 121.793 201.201C124.096 202.683 128.289 204.082 134.375 205.398L148.436 208.114C163.074 210.913 173.517 216.098 179.767 223.669C186.016 231.241 189.141 240.953 189.141 252.804C189.141 267.783 183.878 279.223 173.353 287.124C162.991 295.025 148.19 298.975 128.947 298.975Z" fill="#F47D3E"/>
<path d="M237.877 295.519L205.313 198.732H194.952V158.24H271.181V198.732H260.82L269.701 237.249H272.168L290.177 158.24H335.569L353.578 237.249H356.045L364.679 198.732H354.318V158.24H425.86V198.732H415.499L384.168 295.519H324.221L310.653 226.879H308.186L294.617 295.519H237.877Z" fill="#F47D3E"/>
<path d="M444.623 144.66V103.427H494.949V144.66H444.623ZM432.781 295.519V255.026H443.636V198.732H432.781V158.24H500.376V255.026H511.231V295.519H432.781Z" fill="#F47D3E"/>
<path d="M578.999 298.975C561.566 298.975 548.408 294.778 539.527 286.383C530.811 277.824 526.452 263.503 526.452 243.422V198.732H515.598V158.24C521.848 158.24 526.535 156.676 529.66 153.548C532.784 150.256 534.347 145.812 534.347 140.216V129.105H586.646V158.24H619.95V198.732H586.646V239.224C586.646 244.656 587.798 248.689 590.1 251.323C592.567 253.792 596.185 255.026 600.955 255.026C607.204 255.026 614.03 254.286 621.431 252.804V291.568C616.826 293.379 610.576 295.025 602.682 296.506C594.952 298.152 587.058 298.975 578.999 298.975Z" fill="#F47D3E"/>
<path d="M703.13 298.975C679.611 298.975 661.273 292.885 648.116 280.704C634.959 268.359 628.381 250.417 628.381 226.879C628.381 203.341 634.959 185.481 648.116 173.301C661.273 160.956 679.529 154.783 702.883 154.783C714.231 154.783 725.086 156.347 735.447 159.474C745.808 162.602 753.867 166.141 759.623 170.091V218.978H717.191V214.534C717.191 209.102 716.04 205.152 713.738 202.683C711.435 200.049 707.817 198.732 702.883 198.732C693.344 198.732 688.575 203.999 688.575 214.534V235.768C688.575 248.607 695.893 255.026 710.531 255.026C724.181 255.026 740.052 253.545 758.143 250.582V289.346C752.551 291.815 744.657 294.037 734.46 296.012C724.428 297.988 713.984 298.975 703.13 298.975Z" fill="#F47D3E"/>
<path d="M931.7 255.026V295.519H853.744V255.026H864.105V214.534C864.105 209.102 862.954 205.152 860.651 202.683C858.349 200.049 854.895 198.732 850.29 198.732C840.422 198.732 835.488 203.999 835.488 214.534V255.026H845.849V295.519H767.893V255.026H778.748V143.919H767.893V103.427H835.488V177.498C841.573 169.926 848.152 164.248 855.224 160.462C862.296 156.676 870.519 154.783 879.894 154.783C893.544 154.783 903.741 159.063 910.484 167.622C917.391 176.181 920.845 187.951 920.845 202.929V255.026H931.7Z" fill="#F47D3E"/>
<path d="M1009.85 296.548C986.333 296.548 967.995 290.458 954.838 278.278C941.681 265.932 935.102 247.991 935.102 224.452C935.102 200.914 941.681 183.055 954.838 170.874C967.995 158.529 986.251 152.356 1009.6 152.356C1020.95 152.356 1031.81 153.92 1042.17 157.047C1052.53 160.175 1060.59 163.714 1066.34 167.664V216.551H1023.91V212.107C1023.91 206.675 1022.76 202.725 1020.46 200.256C1018.16 197.622 1014.54 196.305 1009.6 196.305C1000.07 196.305 995.296 201.573 995.296 212.107V233.341C995.296 246.18 1002.61 252.599 1017.25 252.599C1030.9 252.599 1046.77 251.118 1064.86 248.155V286.919C1059.27 289.388 1051.38 291.61 1041.18 293.586C1031.15 295.561 1020.71 296.548 1009.85 296.548Z" fill="#F8B24A"/>
<path d="M1148.13 296.548C1124.78 296.548 1106.52 290.458 1093.36 278.278C1080.21 265.932 1073.63 247.991 1073.63 224.452C1073.63 200.914 1080.21 183.055 1093.36 170.874C1106.52 158.529 1124.78 152.356 1148.13 152.356C1171.81 152.356 1190.15 158.611 1203.14 171.121C1216.14 183.466 1222.63 201.243 1222.63 224.452C1222.63 247.991 1216.05 265.932 1202.9 278.278C1189.74 290.458 1171.48 296.548 1148.13 296.548ZM1148.13 252.599C1152.9 252.599 1156.44 251.365 1158.74 248.896C1161.21 246.262 1162.44 242.229 1162.44 236.798V212.107C1162.44 206.675 1161.21 202.725 1158.74 200.256C1156.44 197.622 1152.9 196.305 1148.13 196.305C1143.36 196.305 1139.74 197.622 1137.28 200.256C1134.97 202.725 1133.82 206.675 1133.82 212.107V236.798C1133.82 242.229 1134.97 246.262 1137.28 248.896C1139.74 251.365 1143.36 252.599 1148.13 252.599Z" fill="#F8B24A"/>
<path d="M1279.09 296.548C1262.31 296.548 1249.65 290.294 1241.09 277.784C1232.71 265.274 1228.51 247.497 1228.51 224.452C1228.51 201.408 1232.71 183.631 1241.09 171.121C1249.65 158.611 1262.31 152.356 1279.09 152.356C1287.47 152.356 1294.87 154.414 1301.29 158.529C1307.87 162.644 1313.21 167.335 1317.32 172.602V141.492H1302.77V101H1374.06V252.599H1384.92V293.092H1317.32V276.302C1313.21 281.57 1307.87 286.261 1301.29 290.376C1294.87 294.491 1287.47 296.548 1279.09 296.548ZM1303.02 252.599C1307.78 252.599 1311.32 251.365 1313.62 248.896C1316.09 246.262 1317.32 242.229 1317.32 236.798V212.107C1317.32 206.675 1316.09 202.725 1313.62 200.256C1311.32 197.622 1307.78 196.305 1303.02 196.305C1298.25 196.305 1294.63 197.622 1292.16 200.256C1289.86 202.725 1288.71 206.675 1288.71 212.107V236.798C1288.71 242.229 1289.86 246.262 1292.16 248.896C1294.63 251.365 1298.25 252.599 1303.02 252.599Z" fill="#F8B24A"/>
<path d="M1466.38 296.548C1443.02 296.548 1424.77 290.458 1411.61 278.278C1398.45 265.932 1391.88 247.991 1391.88 224.452C1391.88 200.914 1398.45 183.055 1411.61 170.874C1424.77 158.529 1443.02 152.356 1466.38 152.356C1489.57 152.356 1506.26 158.446 1516.46 170.627C1526.82 182.643 1532 197.622 1532 215.564V233.341H1452.07V234.822C1452.07 240.913 1453.88 245.439 1457.5 248.402C1461.12 251.2 1467.12 252.599 1475.51 252.599C1485.54 252.599 1495.08 251.859 1504.12 250.377C1513.17 248.896 1521.06 247.003 1527.81 244.699V284.203C1522.05 287.331 1513.58 290.211 1502.4 292.845C1491.38 295.314 1479.37 296.548 1466.38 296.548ZM1480.69 206.181V203.219C1480.69 197.622 1479.45 193.589 1476.99 191.12C1474.68 188.651 1471.15 187.417 1466.38 187.417C1461.61 187.417 1457.99 188.733 1455.52 191.367C1453.22 193.836 1452.07 197.787 1452.07 203.219V206.181H1480.69Z" fill="#F8B24A"/>
<path d="M1226.23 222.341C1226.23 265.231 1191.47 300 1148.6 300C1105.72 300 1070.96 265.231 1070.96 222.341C1070.96 179.452 1105.72 144.683 1148.6 144.683C1191.47 144.683 1226.23 179.452 1226.23 222.341Z" fill="#0F0F0F"/>
<path d="M1113.82 268.451C1110.44 268.451 1107.43 268.2 1104.79 267.697C1102.2 267.194 1099.97 266.048 1098.12 264.259C1096.26 262.471 1095.33 259.816 1095.33 256.295C1095.33 254.115 1095.41 252.271 1095.58 250.762C1095.75 249.253 1096.03 247.157 1096.43 244.474C1097.16 240.338 1097.52 236.426 1097.52 232.737C1097.52 230.669 1097.05 229.188 1096.09 228.294C1095.13 227.344 1094.03 226.869 1092.8 226.869V217.73C1094.03 217.73 1095.13 217.283 1096.09 216.389C1097.05 215.495 1097.52 213.986 1097.52 211.862C1097.52 208.229 1097.16 204.345 1096.43 200.209C1096.03 197.526 1095.75 195.43 1095.58 193.921C1095.41 192.356 1095.33 190.484 1095.33 188.304C1095.33 184.839 1096.26 182.212 1098.12 180.424C1099.97 178.635 1102.2 177.489 1104.79 176.986C1107.43 176.483 1110.44 176.232 1113.82 176.232V183.693C1110.78 183.693 1109.26 185.51 1109.26 189.142C1109.26 191.043 1109.35 192.747 1109.51 194.256C1109.68 195.765 1109.94 197.554 1110.27 199.622C1110.95 203.87 1111.29 207.614 1111.29 210.856C1111.29 216.669 1109.12 220.497 1104.79 222.341C1109.12 224.242 1111.29 228.042 1111.29 233.743C1111.29 236.985 1110.95 240.729 1110.27 244.977C1109.94 247.045 1109.68 248.834 1109.51 250.343C1109.35 251.852 1109.26 253.556 1109.26 255.457C1109.26 257.525 1109.71 258.95 1110.61 259.732C1111.51 260.571 1112.58 260.99 1113.82 260.99V268.451Z" fill="white"/>
<path d="M1183.37 260.99C1186.47 260.99 1188.01 259.145 1188.01 255.457C1188.01 253.556 1187.93 251.852 1187.76 250.343C1187.59 248.834 1187.34 247.045 1187 244.977C1186.27 241.009 1185.9 237.264 1185.9 233.743C1185.9 228.042 1188.1 224.242 1192.49 222.341C1188.1 220.497 1185.9 216.669 1185.9 210.856C1185.9 207.335 1186.27 203.59 1187 199.622C1187.34 197.554 1187.59 195.765 1187.76 194.256C1187.93 192.747 1188.01 191.043 1188.01 189.142C1188.01 187.074 1187.59 185.649 1186.75 184.867C1185.9 184.084 1184.78 183.693 1183.37 183.693V176.232C1186.75 176.232 1189.73 176.483 1192.32 176.986C1194.97 177.489 1197.22 178.635 1199.07 180.424C1200.93 182.212 1201.86 184.839 1201.86 188.304C1201.86 191.993 1201.5 195.961 1200.76 200.209C1200.09 204.68 1199.75 208.564 1199.75 211.862C1199.75 213.986 1200.2 215.495 1201.1 216.389C1202.06 217.283 1203.16 217.73 1204.39 217.73V226.869C1203.21 226.869 1202.14 227.344 1201.19 228.294C1200.23 229.188 1199.75 230.669 1199.75 232.737C1199.75 236.426 1200.12 240.338 1200.85 244.474C1201.19 246.766 1201.44 248.75 1201.61 250.427C1201.78 252.159 1201.86 254.115 1201.86 256.295C1201.86 259.816 1200.93 262.471 1199.07 264.259C1197.22 266.048 1194.97 267.194 1192.32 267.697C1189.73 268.2 1186.75 268.451 1183.37 268.451V260.99Z" fill="white"/>
<path d="M1174.62 198.193C1171.73 195.329 1167.06 195.329 1164.17 198.193L1160.91 201.427L1171.36 211.801L1174.62 208.568C1177.5 205.703 1177.5 201.058 1174.62 198.193Z" fill="white"/>
<path d="M1168.38 214.765L1157.93 204.391L1123.73 238.347C1121.99 240.071 1120.72 242.197 1120.02 244.533L1117.76 252.036C1117.54 252.773 1117.75 253.572 1118.3 254.116C1118.84 254.66 1119.65 254.863 1120.39 254.643L1127.95 252.408C1130.3 251.712 1132.44 250.445 1134.18 248.721L1168.38 214.765Z" fill="white"/>
</svg>
