<svg width="1600" height="400" viewBox="0 0 1600 400" fill="none" xmlns="http://www.w3.org/2000/svg">
<rect width="1600" height="400" fill="white"/>
<path d="M94.521 261.268C78.7537 261.268 51.7673 254.294 39.6385 242.771V299.17C56.3155 304.931 65.7152 307.963 97.2499 307.963C127.875 307.963 158.5 295.835 158.5 256.416C158.5 225.791 142.733 213.056 111.501 205.476C91.1855 200.927 86.6373 199.108 86.6373 196.076C86.6373 193.044 90.2759 192.134 101.495 192.134C126.662 192.134 148.191 204.566 153.952 211.54V158.78C136.972 151.806 121.811 147.258 98.4629 147.258C57.8317 147.258 36 167.877 36 196.379C36 230.946 58.1349 241.862 87.547 247.32C107.256 250.958 109.985 253.687 109.985 256.416C109.985 260.055 102.708 261.268 94.521 261.268Z" fill="#656565"/>
<path d="M297.382 304.013C306.176 306.742 316.182 307.955 327.401 307.955C373.49 307.955 397.444 284.001 397.444 250.95V151.798H339.833V246.705C339.833 253.982 336.194 257.924 327.401 257.924C319.214 257.924 314.969 253.982 314.969 246.705V151.798H257.357V246.705C257.357 253.982 253.719 257.924 244.926 257.924C236.739 257.924 232.494 253.982 232.494 246.705V151.798H174.882V250.95C174.882 284.001 198.836 307.955 244.926 307.955C279.492 307.955 298.595 294.31 310.421 273.691L313.453 274.904C310.421 285.213 304.659 296.432 297.382 304.013Z" fill="#656565"/>
<path d="M416.227 109.322C416.227 125.999 429.871 139.644 446.548 139.644C463.225 139.644 476.87 125.999 476.87 109.322C476.87 92.6449 463.225 79 446.548 79C429.871 79 416.227 92.6449 416.227 109.322ZM417.743 303.381H475.354V151.772H417.743V303.381Z" fill="#656565"/>
<path d="M490.136 191.191H505.297V234.854C505.297 272.453 524.4 303.381 575.643 303.381H589.288V251.531H583.527C572.611 251.531 562.908 243.041 562.908 231.822V191.191H589.288V151.772H562.908V124.483H505.297V151.772H490.136V191.191Z" fill="#656565"/>
<path d="M689.754 214.564L743.121 199.403C739.482 169.081 719.166 147.553 673.684 147.553C628.201 147.553 603.337 171.507 603.337 217.899V242.46C603.337 284 628.201 307.955 673.684 307.955C711.586 307.955 730.992 290.671 741.908 265.807L689.754 241.55C685.812 251.556 681.264 257.924 673.684 257.924C664.587 257.924 659.736 253.982 659.736 237.608V217.899C659.736 201.525 664.587 197.583 673.684 197.583C683.387 197.583 687.025 203.345 689.754 214.564Z" fill="#656565"/>
<path d="M827.718 197.255C835.905 197.255 840.15 201.197 840.15 208.474V303.381H897.762V204.229C897.762 171.178 887.452 147.224 846.215 147.224C814.983 147.224 802.854 177.849 798.003 201.197H795.577L818.319 82.0322H757.675V303.381H815.287V208.474C815.287 201.197 818.925 197.255 827.718 197.255Z" fill="#656565"/>
<path d="M1000.68 214.564L1054.05 199.403C1050.41 169.081 1030.09 147.553 984.608 147.553C939.126 147.553 914.262 171.507 914.262 217.899V242.46C914.262 284 939.126 307.955 984.608 307.955C1022.51 307.955 1041.92 290.671 1052.83 265.807L1000.68 241.55C996.737 251.556 992.189 257.924 984.608 257.924C975.512 257.924 970.66 253.982 970.66 237.608V217.899C970.66 201.525 975.512 197.583 984.608 197.583C994.311 197.583 997.95 203.345 1000.68 214.564Z" fill="#424242"/>
<path d="M1261.99 216.669V238.804C1261.99 283.984 1280.79 307.938 1322.03 307.938C1356.29 307.938 1369.64 277.313 1373.27 253.965H1375.7C1373.58 270.339 1368.73 287.016 1360.54 303.39H1404.51V82.0406H1346.89V152.084C1340.83 149.355 1333.55 147.536 1324.76 147.536C1285.34 147.536 1261.99 171.49 1261.99 216.669ZM1322.03 246.688V208.786C1322.03 201.508 1326.28 197.566 1334.46 197.566C1343.26 197.566 1346.89 201.812 1346.89 208.786V246.688C1346.89 253.965 1343.26 257.907 1334.46 257.907C1326.28 257.907 1322.03 253.965 1322.03 246.688Z" fill="#2B2B2B"/>
<path d="M1479.17 246.696V236.69H1563.77V223.955C1563.77 172.105 1541.03 147.544 1493.12 147.544C1447.64 147.544 1422.77 171.498 1422.77 217.891V242.451C1422.77 283.992 1447.64 307.946 1493.12 307.946C1532.84 307.946 1555.28 291.269 1561.65 267.012L1509.19 247.606C1506.46 254.58 1501.61 257.915 1494.03 257.915C1484.02 257.915 1479.17 253.974 1479.17 246.696ZM1479.17 214.859V208.794C1479.17 201.517 1484.02 197.575 1493.12 197.575C1502.82 197.575 1507.07 201.82 1507.07 208.794V214.859H1479.17Z" fill="#2B2B2B"/>
<path d="M1151.82 139.012C1150.82 139.016 1149.48 139.037 1148.85 139.061C1148.22 139.082 1147.15 139.138 1146.46 139.182C1145.78 139.225 1144.8 139.296 1144.3 139.339C1143.8 139.381 1142.77 139.484 1142.01 139.568C1141.26 139.651 1139.93 139.821 1139.07 139.945C1138.2 140.069 1136.96 140.264 1136.32 140.378C1135.68 140.492 1134.69 140.677 1134.13 140.788C1133.58 140.9 1132.66 141.095 1132.1 141.22C1131.54 141.346 1130.54 141.586 1129.87 141.753C1129.21 141.919 1128.2 142.183 1127.64 142.339C1127.07 142.496 1126.06 142.791 1125.39 142.996C1124.72 143.201 1123.71 143.521 1123.15 143.708C1122.6 143.895 1121.6 144.242 1120.94 144.479C1120.29 144.716 1119.33 145.077 1118.81 145.28C1118.29 145.483 1117.47 145.816 1116.98 146.019C1116.49 146.221 1115.59 146.61 1114.97 146.884C1114.36 147.157 1113.36 147.613 1112.76 147.898C1112.16 148.182 1111.12 148.697 1110.44 149.042C1109.77 149.388 1108.65 149.983 1107.96 150.366C1107.26 150.748 1106.25 151.325 1105.7 151.648C1105.15 151.971 1104.28 152.498 1103.76 152.82C1103.24 153.143 1102.35 153.714 1101.78 154.091C1101.21 154.467 1100.21 155.142 1099.57 155.591C1098.93 156.04 1097.86 156.821 1097.18 157.326C1096.51 157.832 1095.55 158.576 1095.04 158.98C1094.54 159.383 1093.78 160 1093.37 160.351C1092.95 160.702 1092.25 161.299 1091.82 161.679C1091.38 162.058 1090.59 162.768 1090.06 163.255C1089.53 163.743 1088.63 164.6 1088.06 165.159C1087.49 165.718 1086.57 166.645 1086.02 167.219C1085.48 167.793 1084.72 168.605 1084.34 169.024C1083.96 169.442 1083.34 170.139 1082.97 170.572C1082.59 171.006 1081.96 171.749 1081.57 172.225C1081.17 172.7 1080.58 173.432 1080.25 173.851C1079.92 174.271 1079.26 175.14 1078.78 175.783C1078.3 176.426 1077.61 177.375 1077.24 177.893C1076.88 178.41 1076.33 179.21 1076.02 179.672C1075.71 180.133 1075.22 180.894 1074.92 181.364C1074.62 181.832 1074.08 182.702 1073.73 183.295C1073.37 183.889 1072.81 184.843 1072.49 185.416C1072.16 185.989 1071.68 186.87 1071.4 187.373C1071.13 187.877 1070.55 189.02 1070.11 189.915C1069.67 190.81 1069.12 191.954 1068.89 192.457C1068.66 192.96 1068.27 193.852 1068.01 194.439C1067.76 195.027 1067.37 195.964 1067.15 196.524C1066.93 197.083 1066.56 198.021 1066.35 198.608C1066.13 199.195 1065.81 200.087 1065.63 200.59C1065.46 201.094 1065.17 201.963 1064.99 202.522C1064.81 203.081 1064.51 204.042 1064.33 204.657C1064.15 205.272 1063.86 206.325 1063.68 206.996C1063.5 207.667 1063.25 208.661 1063.12 209.207C1062.99 209.752 1062.78 210.66 1062.66 211.225C1062.54 211.789 1062.36 212.67 1062.26 213.182C1062.16 213.692 1062 214.58 1061.9 215.153C1061.8 215.725 1061.63 216.835 1061.52 217.618C1061.41 218.401 1061.25 219.659 1061.16 220.414C1061.08 221.169 1060.98 222.198 1060.94 222.701C1060.89 223.205 1060.82 224.166 1060.78 224.837C1060.74 225.508 1060.68 226.709 1060.65 227.506C1060.62 228.302 1060.6 229.652 1060.6 230.505C1060.6 231.357 1060.63 232.707 1060.65 233.504C1060.68 234.301 1060.74 235.502 1060.78 236.173C1060.82 236.844 1060.89 237.805 1060.94 238.308C1060.98 238.811 1061.08 239.84 1061.16 240.595C1061.25 241.35 1061.42 242.677 1061.54 243.544C1061.67 244.411 1061.86 245.646 1061.98 246.289C1062.09 246.932 1062.27 247.916 1062.39 248.475C1062.5 249.034 1062.69 249.949 1062.82 250.508C1062.94 251.067 1063.18 252.062 1063.35 252.72C1063.51 253.376 1063.75 254.303 1063.88 254.778C1064.01 255.254 1064.3 256.237 1064.52 256.964C1064.74 257.691 1065.1 258.847 1065.33 259.531C1065.56 260.216 1065.95 261.338 1066.21 262.022C1066.46 262.707 1066.84 263.72 1067.06 264.272C1067.28 264.824 1067.61 265.625 1067.79 266.051C1067.97 266.477 1068.31 267.261 1068.55 267.792C1068.79 268.323 1069.19 269.194 1069.44 269.728C1069.69 270.262 1070.07 271.051 1070.29 271.482C1070.5 271.913 1070.9 272.677 1071.16 273.18C1071.43 273.684 1071.92 274.587 1072.26 275.188C1072.6 275.789 1073.16 276.762 1073.51 277.349C1073.86 277.936 1074.44 278.885 1074.8 279.459C1075.17 280.031 1075.71 280.877 1076.02 281.338C1076.33 281.799 1076.88 282.6 1077.24 283.118C1077.61 283.635 1078.33 284.631 1078.85 285.33C1079.38 286.029 1080.14 287.024 1080.56 287.541C1080.97 288.058 1081.6 288.825 1081.95 289.244C1082.3 289.664 1082.9 290.361 1083.28 290.795C1083.66 291.228 1084.36 292.017 1084.85 292.548C1085.34 293.08 1086.49 294.27 1087.41 295.193C1088.34 296.117 1089.53 297.271 1090.06 297.757C1090.59 298.244 1091.38 298.953 1091.81 299.332C1092.25 299.712 1092.95 300.309 1093.37 300.661C1093.78 301.012 1094.6 301.672 1095.17 302.127C1095.74 302.583 1096.73 303.349 1097.38 303.83C1098.02 304.311 1099.01 305.025 1099.57 305.417C1100.13 305.809 1100.93 306.359 1101.35 306.639C1101.77 306.918 1102.58 307.444 1103.15 307.807C1103.72 308.171 1104.68 308.76 1105.28 309.117C1105.88 309.475 1106.87 310.041 1107.47 310.376C1108.07 310.712 1109.1 311.271 1109.77 311.619C1110.43 311.967 1111.63 312.568 1112.44 312.954C1113.24 313.34 1114.39 313.874 1115 314.141C1115.6 314.406 1116.49 314.79 1116.98 314.993C1117.47 315.196 1118.29 315.527 1118.81 315.731C1119.33 315.934 1120.17 316.254 1120.69 316.443C1121.21 316.631 1122.2 316.978 1122.9 317.214C1123.6 317.449 1124.72 317.81 1125.39 318.015C1126.06 318.22 1127.07 318.516 1127.64 318.672C1128.2 318.828 1129.21 319.092 1129.87 319.259C1130.54 319.425 1131.44 319.642 1131.87 319.74C1132.31 319.839 1133 319.99 1133.42 320.077C1133.84 320.164 1134.67 320.326 1135.25 320.437C1135.84 320.548 1136.8 320.717 1137.39 320.813C1137.98 320.908 1139.04 321.066 1139.75 321.163C1140.47 321.261 1141.59 321.399 1142.24 321.47C1142.9 321.541 1143.84 321.634 1144.33 321.674C1144.82 321.716 1145.58 321.773 1146.03 321.802C1146.48 321.832 1147.27 321.879 1147.78 321.907C1148.3 321.937 1149.74 321.972 1150.99 321.99C1152.37 322.011 1153.89 321.998 1154.9 321.96C1155.81 321.927 1157.11 321.867 1157.8 321.826C1158.48 321.783 1159.56 321.703 1160.19 321.647C1160.82 321.59 1161.83 321.487 1162.45 321.417C1163.06 321.347 1164.06 321.22 1164.66 321.137C1165.26 321.053 1166.25 320.905 1166.85 320.808C1167.45 320.71 1168.43 320.539 1169.03 320.426C1169.63 320.313 1170.61 320.117 1171.19 319.991C1171.78 319.865 1172.74 319.647 1173.33 319.508C1173.92 319.368 1174.83 319.14 1175.36 318.999C1175.89 318.859 1176.73 318.629 1177.22 318.49C1177.71 318.351 1178.4 318.145 1178.77 318.034C1179.13 317.923 1179.79 317.715 1180.24 317.574C1180.69 317.432 1181.64 317.111 1182.35 316.861C1183.06 316.61 1184.17 316.201 1184.82 315.952C1185.47 315.702 1186.47 315.304 1187.05 315.068C1187.62 314.831 1188.58 314.422 1189.18 314.158C1189.77 313.894 1190.75 313.446 1191.35 313.162C1191.95 312.879 1193.01 312.353 1193.71 311.994C1194.41 311.636 1195.37 311.131 1195.85 310.872C1196.32 310.613 1197.11 310.174 1197.59 309.897C1198.08 309.619 1198.91 309.127 1199.45 308.803C1199.98 308.479 1200.84 307.951 1201.34 307.631C1201.84 307.311 1202.75 306.716 1203.35 306.309C1203.95 305.902 1204.84 305.283 1205.33 304.933C1205.82 304.583 1206.69 303.943 1207.26 303.51C1207.83 303.077 1208.7 302.402 1209.19 302.01C1209.68 301.618 1210.42 301.01 1210.84 300.659C1211.26 300.308 1211.97 299.701 1212.42 299.31C1212.87 298.918 1213.65 298.221 1214.15 297.76C1214.65 297.298 1215.8 296.188 1216.69 295.293C1217.59 294.398 1218.64 293.328 1219.02 292.916C1219.4 292.505 1220.09 291.746 1220.54 291.23C1221 290.715 1221.72 289.885 1222.14 289.387C1222.56 288.888 1223.17 288.137 1223.51 287.718C1223.85 287.298 1224.46 286.507 1224.88 285.959C1225.3 285.412 1226.02 284.439 1226.48 283.799C1226.94 283.158 1227.7 282.051 1228.18 281.338C1228.66 280.625 1229.35 279.561 1229.71 278.974C1230.08 278.387 1230.64 277.458 1230.96 276.91C1231.29 276.362 1231.86 275.355 1232.23 274.673C1232.61 273.991 1233.19 272.895 1233.53 272.238C1233.87 271.581 1234.39 270.529 1234.69 269.9C1234.99 269.271 1235.42 268.322 1235.66 267.79C1235.9 267.259 1236.24 266.47 1236.42 266.037C1236.61 265.603 1236.97 264.711 1237.23 264.054C1237.49 263.397 1237.85 262.436 1238.04 261.919C1238.23 261.402 1238.58 260.407 1238.81 259.708C1239.05 259.009 1239.41 257.888 1239.61 257.217C1239.82 256.546 1240.12 255.536 1240.27 254.971C1240.43 254.408 1240.69 253.401 1240.86 252.735C1241.03 252.069 1241.27 251.066 1241.39 250.507C1241.52 249.948 1241.71 249.031 1241.82 248.471C1241.93 247.91 1242.12 246.927 1242.23 246.285C1242.35 245.643 1242.54 244.409 1242.67 243.542C1242.79 242.676 1242.95 241.451 1243.02 240.823C1243.09 240.193 1243.18 239.313 1243.22 238.866C1243.27 238.418 1243.33 237.56 1243.38 236.959C1243.42 236.358 1243.48 235.351 1243.52 234.723C1243.55 234.055 1243.58 232.298 1243.58 230.503C1243.58 228.708 1243.55 226.951 1243.52 226.284C1243.48 225.654 1243.42 224.648 1243.38 224.047C1243.33 223.446 1243.26 222.588 1243.22 222.141C1243.18 221.693 1243.09 220.813 1243.02 220.184C1242.95 219.554 1242.79 218.331 1242.67 217.464C1242.54 216.597 1242.35 215.362 1242.23 214.719C1242.12 214.076 1241.94 213.092 1241.82 212.533C1241.71 211.974 1241.52 211.059 1241.39 210.5C1241.27 209.94 1241.03 208.945 1240.86 208.287C1240.7 207.63 1240.44 206.624 1240.28 206.051C1240.12 205.478 1239.82 204.46 1239.62 203.789C1239.41 203.118 1239.05 201.998 1238.81 201.299C1238.58 200.6 1238.23 199.605 1238.04 199.087C1237.85 198.57 1237.51 197.662 1237.28 197.071C1237.04 196.479 1236.71 195.655 1236.54 195.241C1236.37 194.826 1236.01 193.995 1235.74 193.394C1235.47 192.793 1234.94 191.644 1234.56 190.84C1234.17 190.037 1233.57 188.826 1233.21 188.149C1232.86 187.473 1232.29 186.426 1231.95 185.822C1231.62 185.22 1231.05 184.246 1230.7 183.659C1230.35 183.072 1229.75 182.088 1229.36 181.473C1228.97 180.858 1228.35 179.908 1227.98 179.363C1227.61 178.818 1227.03 177.972 1226.68 177.483C1226.33 176.993 1225.67 176.088 1225.2 175.469C1224.74 174.852 1224.03 173.937 1223.63 173.436C1223.23 172.936 1222.61 172.183 1222.26 171.764C1221.91 171.344 1221.31 170.646 1220.93 170.213C1220.55 169.779 1219.84 168.991 1219.36 168.46C1218.87 167.929 1217.93 166.951 1217.28 166.286C1216.63 165.62 1215.6 164.611 1214.99 164.042C1214.39 163.474 1213.62 162.761 1213.28 162.459C1212.95 162.157 1212.22 161.518 1211.66 161.04C1211.1 160.561 1210.33 159.917 1209.96 159.608C1209.58 159.299 1208.9 158.76 1208.45 158.409C1208 158.058 1207.19 157.44 1206.65 157.036C1206.1 156.631 1205.24 156.003 1204.72 155.641C1204.2 155.278 1203.4 154.729 1202.94 154.421C1202.48 154.113 1201.72 153.617 1201.25 153.318C1200.78 153.02 1199.91 152.483 1199.32 152.125C1198.72 151.767 1197.79 151.221 1197.25 150.912C1196.7 150.603 1195.76 150.087 1195.16 149.765C1194.56 149.443 1193.63 148.962 1193.1 148.697C1192.57 148.431 1191.6 147.962 1190.94 147.654C1190.29 147.346 1189.29 146.895 1188.73 146.651C1188.17 146.407 1187.12 145.968 1186.4 145.676C1185.68 145.384 1184.51 144.931 1183.8 144.668C1183.08 144.397 1181.92 143.989 1181.21 143.752C1180.5 143.514 1179.51 143.195 1179 143.041C1178.5 142.886 1177.6 142.62 1176.99 142.449C1176.4 142.278 1175.28 141.981 1174.53 141.79C1173.77 141.598 1172.58 141.315 1171.89 141.161C1171.19 141.006 1170.2 140.798 1169.69 140.698C1169.17 140.598 1168.16 140.414 1167.43 140.29C1166.69 140.165 1165.61 139.995 1165.02 139.912C1164.44 139.828 1163.46 139.701 1162.85 139.629C1162.24 139.557 1161.13 139.442 1160.38 139.374C1159.64 139.306 1158.47 139.215 1157.78 139.173C1157.1 139.13 1155.89 139.072 1155.09 139.044C1154.29 139.014 1152.82 138.996 1151.81 139L1151.82 139.012ZM1159.88 179.547C1159.95 179.564 1162.74 180.342 1166.07 181.277C1169.4 182.211 1172.14 182.976 1172.16 182.976C1172.18 182.976 1172.18 183.043 1172.17 183.124C1172.15 183.205 1165.91 205.366 1158.3 232.371C1150.69 259.376 1144.46 281.48 1144.45 281.488C1144.44 281.501 1141.64 280.721 1138.24 279.759C1133.37 278.383 1132.05 277.992 1132.05 277.929C1132.05 277.885 1138.28 255.723 1145.9 228.681L1159.75 179.51L1159.88 179.547ZM1119.75 195.076L1124.32 199.651L1108.89 215.079L1093.46 230.507L1108.89 245.931L1124.32 261.36L1119.75 265.935L1115.17 270.511L1095.17 250.515L1075.16 230.51L1095.17 210.506L1115.17 190.503L1119.75 195.076ZM1209.03 210.504L1229.04 230.508L1209.03 250.512L1189.03 270.516L1184.46 265.944L1179.89 261.371L1195.27 245.967C1203.74 237.495 1210.66 230.538 1210.66 230.509C1210.66 230.48 1203.74 223.524 1195.27 215.052L1179.89 199.648L1184.46 195.076L1189.03 190.503L1209.03 210.504Z" fill="#F47D3E"/>
</svg>
